{
	"asset":{
		"generator":"Khronos glTF Blender I/O v4.1.63",
		"version":"2.0"
	},
	"scene":0,
	"scenes":[
		{
			"name":"Scene",
			"nodes":[
				0
			]
		}
	],
	"nodes":[
		{
			"mesh":0,
			"name":"uploads_files_2078365_ico+sphere"
		}
	],
	"meshes":[
		{
			"name":"uploads_files_2078365_ico+sphere",
			"primitives":[
				{
					"attributes":{
						"POSITION":0,
						"NORMAL":1
					},
					"indices":2
				}
			]
		}
	],
	"accessors":[
		{
			"bufferView":0,
			"componentType":5126,
			"count":10080,
			"max":[
				0.9878453016281128,
				1.7999895811080933,
				1.0089950561523438
			],
			"min":[
				-0.9878453016281128,
				-0.08546698093414307,
				-1.0089950561523438
			],
			"type":"VEC3"
		},
		{
			"bufferView":1,
			"componentType":5126,
			"count":10080,
			"type":"VEC3"
		},
		{
			"bufferView":2,
			"componentType":5123,
			"count":77520,
			"type":"SCALAR"
		}
	],
	"bufferViews":[
		{
			"buffer":0,
			"byteLength":120960,
			"byteOffset":0,
			"target":34962
		},
		{
			"buffer":0,
			"byteLength":120960,
			"byteOffset":120960,
			"target":34962
		},
		{
			"buffer":0,
			"byteLength":155040,
			"byteOffset":241920,
			"target":34963
		}
	],
	"buffers":[
		{
			"byteLength":396960,
			"uri":"untitled.bin"
		}
	]
}
